<svg width="40" height="40" viewBox="0 0 40 40" fill="none" xmlns="http://www.w3.org/2000/svg">
<path fill-rule="evenodd" clip-rule="evenodd" d="M0 0V10.6061C0 14.6846 2.3021 18.2254 5.67777 20C2.3021 21.7746 0 25.3154 0 29.3939V40H29.3939C35.2515 40 40 35.2515 40 29.3939V28.7879C40 24.9948 37.8881 21.6949 34.7761 20C37.8881 18.3051 40 15.0052 40 11.2121V10.6061C40 4.74849 35.2515 0 29.3939 0H0ZM25.2239 20C23.024 18.8019 21.3239 16.8018 20.5163 14.3924C19.5914 16.8118 17.8059 18.8058 15.5343 20C17.8059 21.1942 19.5914 23.1882 20.5163 25.6076C21.3239 23.1982 23.024 21.1981 25.2239 20Z" fill="#0A0C00"/>
</svg>
