<svg width="40" height="40" viewBox="0 0 40 40" fill="none" xmlns="http://www.w3.org/2000/svg">
<g clip-path="url(#clip0_609_2388)">
<path d="M28.7865 40C21.7743 40 14.2861 37.4234 8.43125 31.5687C2.58617 25.7235 0 18.2403 0 11.2135C0 5.02063 5.01031 0 11.2135 0C11.6927 0 12.1236 0.291719 12.3016 0.736641L17.3224 13.2887C17.5628 13.8897 17.2705 14.5716 16.6697 14.812L11.1543 17.0181C11.5445 23.3633 16.6377 28.4562 22.9819 28.8459L25.188 23.3305C25.4279 22.7305 26.1096 22.4372 26.7113 22.6777L39.2633 27.6984C39.7082 27.8764 40 28.3073 40 28.7865C40 34.9794 34.9897 40 28.7865 40Z" fill="#0A0C00"/>
</g>
<defs>
<clipPath id="clip0_609_2388">
<rect width="40" height="40" fill="white"/>
</clipPath>
</defs>
</svg>
