<svg width="40" height="40" viewBox="0 0 40 40" fill="none" xmlns="http://www.w3.org/2000/svg">
<g clip-path="url(#clip0_326_3286)">
<path d="M17.1373 20.1687C11.6625 22.201 5.74695 22.6975 0.0625 21.6714C0.418359 26.003 2.15484 30.052 5.05914 33.3039C10.6531 33.8224 16.0152 32.8132 20.7516 30.59C20.2001 26.9099 18.9748 23.3822 17.1373 20.1687Z" fill="#0A0C00"/>
<path d="M4.02543 7.95337C1.55332 11.2156 0.153477 15.1354 0.00683594 19.2754C5.24731 20.3081 10.7517 19.942 15.8641 18.138C12.937 13.8534 8.88637 10.2887 4.02543 7.95337Z" fill="#0A0C00"/>
<path d="M21.0174 33.0427C16.8988 34.8518 12.3724 35.8158 7.6991 35.7804C11.3743 38.6555 15.9159 40.1491 20.6846 39.9881C21.0656 37.674 21.1731 35.3637 21.0174 33.0427Z" fill="#0A0C00"/>
<path d="M33.1086 23.8232C30.4475 27.0866 27.1168 29.8821 23.2793 31.9413C23.5304 34.55 23.468 37.1664 23.0908 39.763C26.8308 39.1848 30.3092 37.5617 33.1789 35.0381C33.8325 31.4431 33.8441 27.5971 33.1086 23.8232Z" fill="#0A0C00"/>
<path d="M39.9936 20.0008C39.9936 17.6698 39.5973 15.3998 38.837 13.2673C37.92 16.128 36.6161 18.8374 34.9443 21.3404C35.8805 24.8976 36.1846 28.5324 35.9147 32.1086C38.5601 28.6448 39.9936 24.4333 39.9936 20.0008Z" fill="#0A0C00"/>
<path d="M17.2284 0.190308C21.5525 2.19914 25.5495 5.21554 28.7892 9.21468C30.1074 7.6582 31.2657 5.97242 32.244 4.18851C27.8829 0.79562 22.4743 -0.53063 17.2284 0.190308Z" fill="#0A0C00"/>
<path d="M27.1456 10.9085C23.5594 6.39726 18.7143 2.99304 13.3079 1.14038C10.5343 2.12116 7.99215 3.71671 5.85036 5.85843C5.76567 5.94311 5.68278 6.02921 5.59973 6.11522C10.6847 8.68046 14.9929 12.5516 18.0925 17.2491C21.4723 15.7425 24.5555 13.6176 27.1876 10.9626C27.1735 10.9446 27.1598 10.9263 27.1456 10.9085Z" fill="#0A0C00"/>
<path d="M34.1353 5.85847C34.1075 5.83065 34.0789 5.80378 34.0509 5.77612C32.9843 7.6498 31.7249 9.43831 30.2345 11.1376C31.7999 13.3904 33.067 15.8239 34.0156 18.398C35.5322 15.7729 36.6414 12.927 37.3063 9.9737C36.4429 8.4887 35.3822 7.10542 34.1353 5.85847Z" fill="#0A0C00"/>
<path d="M28.5872 12.8809C25.879 15.5436 22.7499 17.6991 19.3202 19.2662C21.0894 22.428 22.3139 25.8652 22.9416 29.4478C26.6514 27.3125 29.8858 24.3869 32.3878 20.9145C31.509 18.001 30.2204 15.3151 28.5872 12.8809Z" fill="#0A0C00"/>
</g>
<defs>
<clipPath id="clip0_326_3286">
<rect width="40" height="40" fill="white"/>
</clipPath>
</defs>
</svg>
