<svg width="139" height="35" viewBox="0 0 139 35" fill="none" xmlns="http://www.w3.org/2000/svg">
<path d="M3.43115 32.4626H33.3562V2.5376H3.43115V32.4626ZM27.5963 14.6208H21.273V8.29743H27.5963V14.6208ZM9.18982 8.29743H15.5167V20.3794H27.5963V26.7028H9.18982V8.29743ZM52.843 2.5376C49.8836 2.5376 46.9908 3.41514 44.5303 5.05924C42.0697 6.70334 40.1519 9.04017 39.0194 11.7742C37.8869 14.5083 37.5907 17.5167 38.168 20.4191C38.7454 23.3215 40.1703 25.9876 42.2629 28.0801C44.3554 30.1728 47.0215 31.5977 49.9239 32.1751C52.8264 32.7524 55.8348 32.4562 58.5689 31.3237C61.303 30.1912 63.6397 28.2734 65.2839 25.8128C66.9279 23.3522 67.8055 20.4593 67.8055 17.5001C67.8008 13.5332 66.2229 9.73014 63.4179 6.92514C60.6129 4.12012 56.8099 2.54223 52.843 2.5376ZM52.843 26.7028C51.0229 26.7028 49.2436 26.1631 47.7302 25.1518C46.2169 24.1406 45.0373 22.7034 44.3408 21.0218C43.6443 19.3403 43.4621 17.4899 43.8171 15.7047C44.1722 13.9196 45.0487 12.2798 46.3357 10.9928C47.6228 9.70582 49.2625 8.82935 51.0476 8.47426C52.8327 8.11918 54.6831 8.30142 56.3647 8.99794C58.0462 9.69447 59.4836 10.874 60.4947 12.3874C61.506 13.9007 62.0457 15.68 62.0457 17.5001C62.0419 19.9397 61.0712 22.2783 59.3461 24.0033C57.6211 25.7284 55.2825 26.699 52.843 26.7028ZM121.349 2.5376C118.389 2.53738 115.496 3.41471 113.035 5.05867C110.575 6.70263 108.657 9.03937 107.524 11.7734C106.391 14.5074 106.095 17.516 106.672 20.4184C107.249 23.3209 108.674 25.9871 110.767 28.0798C112.859 30.1724 115.525 31.5976 118.428 32.175C121.33 32.7524 124.339 32.4562 127.073 31.3238C129.807 30.1913 132.144 28.2736 133.788 25.8129C135.433 23.3523 136.31 20.4595 136.31 17.5001C136.305 13.5334 134.728 9.73052 131.923 6.92555C129.119 4.12057 125.315 2.54254 121.349 2.5376ZM121.349 26.7028C119.529 26.703 117.749 26.1634 116.235 25.1524C114.722 24.1413 113.542 22.7041 112.846 21.0226C112.149 19.3411 111.966 17.4906 112.321 15.7054C112.676 13.9203 113.553 12.2804 114.84 10.9932C116.127 9.70611 117.767 8.82952 119.552 8.47434C121.337 8.11916 123.187 8.30134 124.868 8.99784C126.551 9.69433 127.988 10.8739 129 12.3873C130.01 13.9007 130.55 15.68 130.55 17.5001C130.547 19.9395 129.576 22.2778 127.85 24.0029C126.126 25.7279 123.788 26.6988 121.349 26.7028ZM87.0952 2.5376C84.1358 2.5376 81.243 3.41514 78.7825 5.05924C76.3218 6.70334 74.4041 9.04017 73.2716 11.7742C72.1391 14.5083 71.8429 17.5167 72.4202 20.4191C72.9975 23.3215 74.4225 25.9876 76.515 28.0801C78.6076 30.1728 81.2736 31.5977 84.1761 32.1751C87.0785 32.7524 90.087 32.4562 92.8211 31.3237C95.5551 30.1912 97.8919 28.2734 99.536 25.8128C101.18 23.3522 102.058 20.4593 102.058 17.5001C102.053 13.5332 100.475 9.73014 97.6701 6.92514C94.8651 4.12012 91.0621 2.54223 87.0952 2.5376ZM87.0952 26.7028C85.3993 26.7036 83.7363 26.2359 82.2896 25.3512C80.8429 24.4665 79.6687 23.1994 78.8967 21.6895C78.1248 20.1796 77.785 18.4857 77.9149 16.795C78.0449 15.1041 78.6394 13.4821 79.6331 12.1079C80.6267 10.7337 81.9807 9.66081 83.5456 9.00759C85.1106 8.35436 86.8256 8.14625 88.5012 8.40621C90.177 8.66618 91.7483 9.3841 93.0418 10.4808C94.3353 11.5774 95.3006 13.0102 95.8312 14.6208H87.0952V20.3794H95.8312C95.2235 22.2173 94.0526 23.8172 92.4845 24.9522C90.9165 26.0872 89.0309 26.6996 87.0952 26.7028Z" fill="#0A0C00"/>
</svg>
