<svg width="82" height="35" viewBox="0 0 82 35" fill="none" xmlns="http://www.w3.org/2000/svg">
<path d="M2.11963 20.2563H4.44262V29.7892H2.11963V20.2563Z" fill="#0A0C00"/>
<path d="M5.79023 26.523C5.78869 25.8383 6.02989 25.1686 6.48331 24.5986C6.93673 24.0287 7.58198 23.5841 8.33742 23.3212C9.0928 23.0583 9.92444 22.9888 10.7271 23.1216C11.5297 23.2544 12.2672 23.5835 12.8462 24.0672C13.4253 24.5509 13.8199 25.1675 13.98 25.839C14.1402 26.5104 14.0588 27.2066 13.7461 27.8393C13.4333 28.472 12.9033 29.0129 12.2231 29.3934C11.543 29.774 10.7433 29.9771 9.92518 29.9771C9.38103 29.9823 8.84122 29.8966 8.33725 29.7249C7.8333 29.5532 7.37533 29.2991 6.99023 28.9774C6.60512 28.6557 6.30062 28.2729 6.09456 27.8514C5.8885 27.43 5.78503 26.9783 5.79023 26.523ZM11.7216 26.523C11.7125 26.2274 11.5994 25.9406 11.3965 25.6986C11.1936 25.4565 10.91 25.2699 10.581 25.162C10.252 25.0541 9.89238 25.0299 9.54708 25.0922C9.2017 25.1545 8.886 25.3007 8.63934 25.5124C8.39277 25.7241 8.22622 25.992 8.16057 26.2826C8.09493 26.5731 8.13313 26.8734 8.27034 27.1459C8.40761 27.4183 8.63778 27.6509 8.93208 27.8144C9.22646 27.978 9.57184 28.0653 9.92518 28.0653C10.1668 28.071 10.4073 28.0347 10.6314 27.9587C10.8556 27.8826 11.0584 27.7686 11.2273 27.6236C11.396 27.4787 11.5271 27.3061 11.6122 27.1167C11.6973 26.9272 11.7345 26.7251 11.7216 26.523Z" fill="#0A0C00"/>
<path d="M23.3984 23.2569V29.4652C23.3984 31.6621 21.3465 32.5888 19.2713 32.5888C18.5416 32.6343 17.8109 32.5107 17.1595 32.2318C16.508 31.9529 15.9608 31.5294 15.5778 31.0076L17.5755 30.042C17.734 30.3094 17.9849 30.5308 18.2955 30.6776C18.6061 30.8243 18.9622 30.8896 19.3178 30.865C19.5516 30.8977 19.7914 30.8849 20.0185 30.8277C20.2457 30.7705 20.454 30.6704 20.6276 30.5352C20.8012 30.3999 20.9353 30.2331 21.0197 30.0476C21.1041 29.8621 21.1364 29.6628 21.1141 29.4652V28.8625C20.8411 29.1437 20.4926 29.3671 20.0971 29.5146C19.7016 29.6621 19.2701 29.7295 18.8377 29.7115C17.7862 29.7115 16.7778 29.3619 16.0342 28.7397C15.2908 28.1174 14.873 27.2734 14.873 26.3934C14.873 25.5134 15.2908 24.6695 16.0342 24.0473C16.7778 23.425 17.7862 23.0754 18.8377 23.0754C19.2699 23.0589 19.7007 23.127 20.096 23.2744C20.4912 23.4218 20.8399 23.6443 21.1141 23.9243V23.2763L23.3984 23.2569ZM21.1141 26.3934C21.1296 26.0783 21.0321 25.7664 20.8341 25.498C20.6361 25.2296 20.3467 25.0168 20.0031 24.8872C19.6596 24.7575 19.2774 24.7168 18.906 24.7703C18.5345 24.8238 18.1907 24.9691 17.9187 25.1874C17.6466 25.4057 17.4588 25.6872 17.3795 25.9955C17.3 26.3039 17.3326 26.6251 17.4731 26.9178C17.6136 27.2106 17.8554 27.4614 18.1676 27.6382C18.4797 27.815 18.8479 27.9096 19.2248 27.9099C19.4709 27.9244 19.7178 27.8957 19.9497 27.8255C20.1816 27.7553 20.3935 27.6453 20.5715 27.5024C20.7494 27.3596 20.8897 27.187 20.9832 26.996C21.0767 26.8051 21.1213 26.5998 21.1141 26.3934Z" fill="#0A0C00"/>
<path d="M24.738 26.523C24.7364 25.8383 24.9777 25.1686 25.431 24.5986C25.8845 24.0287 26.5298 23.5841 27.2851 23.3212C28.0405 23.0583 28.8722 22.9888 29.6748 23.1216C30.4774 23.2544 31.2149 23.5835 31.794 24.0672C32.373 24.5509 32.7676 25.1675 32.9278 25.839C33.088 26.5104 33.0065 27.2066 32.6938 27.8393C32.381 28.472 31.8511 29.0129 31.171 29.3934C30.4908 29.774 29.691 29.9771 28.8729 29.9771C28.3288 29.9823 27.789 29.8966 27.285 29.7249C26.781 29.5532 26.323 29.2991 25.938 28.9774C25.5529 28.6557 25.2484 28.2729 25.0423 27.8514C24.8362 27.43 24.7327 26.9783 24.738 26.523ZM30.6694 26.523C30.6602 26.2274 30.5471 25.9406 30.3442 25.6986C30.1414 25.4565 29.8577 25.2699 29.5288 25.162C29.1998 25.0541 28.8402 25.0299 28.4948 25.0922C28.1494 25.1545 27.8337 25.3007 27.5871 25.5124C27.3405 25.7241 27.174 25.992 27.1083 26.2826C27.0427 26.5731 27.0809 26.8734 27.2181 27.1459C27.3553 27.4183 27.5855 27.6509 27.8798 27.8144C28.1742 27.978 28.5196 28.0653 28.8729 28.0653C29.1133 28.0692 29.3521 28.0316 29.5744 27.9547C29.7966 27.8778 29.9976 27.7635 30.1647 27.6188C30.3319 27.4741 30.4615 27.3021 30.5457 27.1135C30.6298 26.925 30.6667 26.7239 30.6539 26.523H30.6694Z" fill="#0A0C00"/>
<path d="M34.084 21.5071C34.084 21.2738 34.1666 21.0458 34.3215 20.8518C34.4764 20.6579 34.6964 20.5067 34.9539 20.4174C35.2115 20.3281 35.4948 20.3048 35.7682 20.3503C36.0416 20.3958 36.2927 20.5081 36.4898 20.6731C36.6869 20.838 36.8211 21.0482 36.8754 21.277C36.9299 21.5058 36.9019 21.743 36.7953 21.9584C36.6886 22.1739 36.508 22.3582 36.2763 22.4878C36.0444 22.6173 35.772 22.6865 35.4932 22.6865C35.1201 22.6849 34.7629 22.56 34.499 22.3392C34.2351 22.1184 34.086 21.8194 34.084 21.5071ZM34.324 23.2568H36.647V29.7892H34.324V23.2568Z" fill="#0A0C00"/>
<path d="M46.7753 26.523C46.8034 26.9548 46.7293 27.387 46.5571 27.7947C46.3848 28.2024 46.118 28.5776 45.7717 28.8987C45.4255 29.2197 45.0069 29.4803 44.5399 29.6654C44.073 29.8505 43.5668 29.9564 43.0507 29.9771C42.6175 29.9945 42.1848 29.9322 41.7835 29.7945C41.3821 29.6567 41.0217 29.447 40.7278 29.18V32.4203H38.4048V23.2568H40.7278V23.8725C41.0217 23.6055 41.3821 23.3958 41.7835 23.258C42.1848 23.1203 42.6175 23.058 43.0507 23.0754C43.5662 23.0961 44.0716 23.2018 44.5381 23.3865C45.0046 23.5713 45.4228 23.8312 45.7689 24.1516C46.115 24.4719 46.382 24.8463 46.5547 25.2532C46.7275 25.6602 46.8024 26.0917 46.7753 26.523ZM44.4523 26.523C44.4431 26.2188 44.3275 25.9236 44.1198 25.6739C43.9121 25.4242 43.6215 25.2309 43.2839 25.1181C42.9463 25.0052 42.5765 24.9776 42.2204 25.0389C41.8643 25.1001 41.5374 25.2475 41.2804 25.4626C41.0233 25.6778 40.8473 25.9513 40.7741 26.2493C40.7009 26.5474 40.7338 26.8568 40.8686 27.1393C41.0035 27.4219 41.2344 27.6652 41.5328 27.8389C41.8312 28.0128 42.184 28.1095 42.5474 28.1172C42.801 28.1307 43.0552 28.0986 43.2928 28.0231C43.5304 27.9476 43.7459 27.8303 43.9249 27.6794C44.1038 27.5283 44.2421 27.347 44.3304 27.1476C44.4187 26.9481 44.455 26.7352 44.4368 26.523H44.4523Z" fill="#0A0C00"/>
<path d="M54.0078 27.8321C54.0078 29.3356 52.4592 29.9772 50.7556 29.9772C50.0751 30.0276 49.3922 29.9064 48.7946 29.6292C48.1972 29.352 47.7124 28.9316 47.4028 28.4219L49.4316 27.4563C49.5139 27.692 49.6902 27.8971 49.9311 28.0373C50.172 28.1776 50.4629 28.2447 50.7556 28.2274C51.321 28.2274 51.5997 28.0784 51.5997 27.8192C51.5997 27.0998 47.728 27.4822 47.728 25.227C47.728 23.8012 49.1683 23.0819 50.8253 23.0819C51.4368 23.0664 52.0421 23.1879 52.5786 23.4341C53.115 23.6802 53.563 24.0419 53.8762 24.4817L51.8398 25.376C51.7498 25.2049 51.6024 25.0592 51.4154 24.9569C51.2285 24.8545 51.0101 24.7997 50.7866 24.7992C50.384 24.7992 50.1362 24.9289 50.1362 25.1686C50.1672 25.9139 54.0078 25.4149 54.0078 27.8321Z" fill="#0A0C00"/>
<path d="M62.5563 23.2568V29.7892H60.2333V29.1801C59.9631 29.4507 59.6201 29.664 59.2325 29.8026C58.845 29.9412 58.4237 30.0009 58.0032 29.9772C56.4545 29.9772 55.084 29.0375 55.084 27.2683V23.2568H57.407V26.9832C57.3865 27.142 57.4087 27.3026 57.4717 27.4533C57.5346 27.6041 57.6369 27.7412 57.7711 27.8548C57.9053 27.9684 58.068 28.0555 58.2475 28.1098C58.4269 28.1642 58.6186 28.1844 58.8085 28.1691C59.6603 28.1691 60.2565 27.7543 60.2565 26.8277V23.2568H62.5563Z" fill="#0A0C00"/>
<path d="M75.9833 25.7843V29.7892H73.6602V25.9528C73.6602 25.3048 73.2808 24.877 72.5375 24.877C71.7941 24.877 71.314 25.3372 71.314 26.1083V29.7892H68.991V25.9528C68.991 25.3048 68.6193 24.877 67.8682 24.877C67.1172 24.877 66.6526 25.3372 66.6526 26.1083V29.7892H64.3296V23.2569H66.6526V23.8596C66.8954 23.5934 67.2138 23.3822 67.5789 23.2453C67.9441 23.1083 68.3443 23.0499 68.7432 23.0755C69.1439 23.0591 69.5428 23.13 69.901 23.281C70.2593 23.4321 70.5646 23.6582 70.7875 23.9374C71.0466 23.6455 71.39 23.4133 71.7854 23.2626C72.1808 23.1119 72.6154 23.0475 73.0485 23.0755C74.814 23.0755 75.9833 24.1512 75.9833 25.7843Z" fill="#0A0C00"/>
<path d="M77.9655 23.218C78.9234 23.218 79.7 22.568 79.7 21.7663C79.7 20.9646 78.9234 20.3147 77.9655 20.3147C77.0076 20.3147 76.231 20.9646 76.231 21.7663C76.231 22.568 77.0076 23.218 77.9655 23.218Z" fill="#0A0C00"/>
<path d="M28.4084 15.3117C32.8945 15.3117 36.5311 12.2681 36.5311 8.51363C36.5311 4.75918 32.8945 1.71558 28.4084 1.71558C23.9223 1.71558 20.2856 4.75918 20.2856 8.51363C20.2856 12.2681 23.9223 15.3117 28.4084 15.3117Z" fill="#0A0C00"/>
<path d="M46.5661 15.3117C51.0522 15.3117 54.6888 12.2681 54.6888 8.51363C54.6888 4.75918 51.0522 1.71558 46.5661 1.71558C42.0801 1.71558 38.4434 4.75918 38.4434 8.51363C38.4434 12.2681 42.0801 15.3117 46.5661 15.3117Z" fill="#0A0C00"/>
<path d="M18.3729 1.71558H2.13525V15.3052H18.3729V1.71558Z" fill="#0A0C00"/>
</svg>
