<svg width="136" height="35" viewBox="0 0 136 35" fill="none" xmlns="http://www.w3.org/2000/svg">
<path d="M25.1364 14.7659C27.7474 14.7659 28.3348 15.9017 28.3348 17.3184C28.3348 18.82 27.6243 19.8959 25.1472 19.8959C22.686 19.8959 21.9746 18.8825 21.9746 17.3184C21.9746 15.7792 22.7501 14.7659 25.1364 14.7659Z" fill="#0A0C00"/>
<path d="M52.423 14.7659C55.034 14.7659 55.6215 15.9017 55.6215 17.3184C55.6215 18.82 54.9101 19.8959 52.4339 19.8959C49.9735 19.8959 49.2612 18.8825 49.2612 17.3184C49.2612 15.7792 50.0367 14.7659 52.423 14.7659Z" fill="#0A0C00"/>
<path fill-rule="evenodd" clip-rule="evenodd" d="M2.01904 32.0832V2.53906H133.965V32.0832H2.01904ZM64.9041 30.4166H132.301V4.20573H64.9041V30.4166ZM25.1487 22.4107C29.7841 22.4107 31.7328 20.4082 31.7328 17.2807C31.7328 14.1024 29.5378 12.2132 25.1487 12.2132C20.827 12.2132 18.5522 14.2649 18.5522 17.2807C18.5522 20.6841 20.9385 22.4107 25.1487 22.4107ZM9.03264 12.4382V22.2607H18.3883V19.6449H12.4174V12.4382H9.03264ZM42.2033 22.2607L42.116 21.3091C40.9836 22.1184 39.6054 22.5079 38.2178 22.4107C36.1318 22.4107 34.3945 21.7849 33.4202 20.5216C32.7775 19.5992 32.453 18.4921 32.4958 17.3682C32.4592 16.268 32.795 15.1876 33.4485 14.3024C34.4344 13.0766 36.2217 12.2632 38.8826 12.2632C41.9437 12.2632 43.7426 13.2016 44.5165 14.7782C44.6825 15.1496 44.7801 15.5479 44.8043 15.9541H41.566C41.4844 15.7072 41.3325 15.4897 41.1292 15.3282C40.4841 14.8999 39.7138 14.7018 38.9425 14.7657C38.4901 14.7108 38.0312 14.7526 37.5962 14.8886C37.1612 15.0245 36.7599 15.2513 36.4189 15.5541C36.0317 16.0849 35.8499 16.7384 35.9072 17.3932C35.8623 18.018 36.0294 18.6396 36.3815 19.1574C36.7255 19.4785 37.1345 19.7216 37.5807 19.8706C38.0269 20.0196 38.4998 20.0708 38.9675 20.0207C39.8963 20.0964 40.8185 19.8095 41.541 19.2199C41.6962 19.0256 41.8032 18.7971 41.853 18.5532H38.3684V16.4424H44.8892V22.2607H42.2033ZM52.4351 22.4107C57.0697 22.4107 59.0192 20.4082 59.0192 17.2807C59.0192 14.1024 56.8208 12.2132 52.4351 12.2132C48.1134 12.2132 45.8386 14.2649 45.8386 17.2807C45.8386 20.6841 48.2249 22.4107 52.4351 22.4107Z" fill="#0A0C00"/>
<path d="M70.6055 22.2234V12.4009H73.0184V22.2234H70.6055Z" fill="#0A0C00"/>
<path d="M85.4096 18.1192C84.7981 18.9201 83.7455 19.2859 82.262 19.2951C81.9491 19.2951 77.8013 19.2826 77.8013 19.2826V22.2234H75.4399V12.4009H82.2628C82.8096 12.343 83.3628 12.4011 83.8853 12.5713C84.4087 12.7416 84.8896 13.0203 85.2981 13.3892C85.8373 14.0927 86.0994 14.9699 86.0353 15.8542C86.0902 16.6586 85.8698 17.4576 85.4096 18.1192ZM83.4734 14.9167C83.2238 14.5417 82.6855 14.3334 81.7744 14.3334H77.7888V17.3234H81.7486C82.7229 17.3234 83.2363 17.1234 83.4734 16.7351C83.6141 16.4615 83.6748 16.1534 83.6482 15.8467C83.669 15.5269 83.6091 15.207 83.4734 14.9167Z" fill="#0A0C00"/>
<path d="M92.994 22.3732C88.5458 22.3732 87.1846 20.7066 87.1846 19.0574H89.7082C89.7082 19.8707 90.8198 20.4841 93.1063 20.4841C95.3795 20.4841 95.9794 20.0832 95.9794 19.4324C95.9794 18.7066 95.5301 18.4816 93.4183 18.2441C93.0023 18.2066 91.8699 18.0691 91.4447 18.0066C88.4493 17.6682 87.2961 16.7799 87.2961 15.1907C87.2961 13.5141 88.9835 12.2507 92.6437 12.2507C96.6168 12.2507 98.1411 13.8149 98.1411 15.4416H95.6449C95.6449 14.6157 94.708 14.1399 92.4964 14.1399C90.2224 14.1399 89.7357 14.4524 89.7357 15.0657C89.7357 15.7041 90.2349 15.9041 92.6478 16.1916C93.1978 16.2674 94.4218 16.4049 94.7588 16.4416C97.3082 16.7041 98.4573 17.6299 98.4573 19.2691C98.4531 21.2216 96.7041 22.3732 92.994 22.3732Z" fill="#0A0C00"/>
<path d="M105.563 22.3609C102.303 22.3609 100.179 21.0717 100.179 18.3609V12.4009H102.564V18.3942C102.564 19.6334 103.577 20.4584 105.663 20.4584C107.549 20.4584 108.674 19.6834 108.674 18.3942V12.4009H111.035V18.5834C111.035 21.0475 109.061 22.3609 105.563 22.3609Z" fill="#0A0C00"/>
<path d="M123.965 22.2234V15.6667L120.904 22.2234H118.581L115.607 15.6667V22.2234H113.361V12.4009H116.404L119.778 19.8834L123.226 12.4009H126.221V22.2234H123.965Z" fill="#0A0C00"/>
</svg>
