<svg width="132" height="35" viewBox="0 0 132 35" fill="none" xmlns="http://www.w3.org/2000/svg">
<path d="M30.5202 12.25C30.8802 12.25 31.0002 12.38 31.0002 12.73V20.65H35.0702C35.4202 20.65 35.5502 20.78 35.5502 21.13V21.83C35.5502 22.18 35.4202 22.31 35.0702 22.31H29.7102C29.3602 22.31 29.2202 22.18 29.2202 21.83V12.73C29.2202 12.38 29.3602 12.25 29.7102 12.25H30.5202Z" fill="#0A0C00"/>
<path d="M39.1001 15.74C39.1001 13.43 40.5601 12.04 43.1001 12.04C45.6401 12.04 47.1001 13.43 47.1001 15.74V18.82C47.1001 21.13 45.6301 22.52 43.1001 22.52C40.5701 22.52 39.1001 21.13 39.1001 18.82V15.74ZM45.4201 15.74C45.4201 14.44 44.6101 13.74 43.1501 13.74C41.6901 13.74 40.8901 14.45 40.8901 15.74V18.84C40.8901 20.15 41.6901 20.84 43.1501 20.84C44.6101 20.84 45.4201 20.12 45.4201 18.84V15.74Z" fill="#0A0C00"/>
<path d="M59.0102 16.8C59.4002 16.8 59.4902 16.93 59.4902 17.28V19.18C59.5008 19.6275 59.4111 20.0718 59.2277 20.4801C59.0442 20.8885 58.7718 21.2506 58.4302 21.54C57.5819 22.2155 56.5123 22.5506 55.4302 22.48C52.8402 22.48 51.4302 21.09 51.4302 18.78V15.68C51.4302 13.4 52.8902 12 55.4302 12C57.4302 12 58.7302 12.79 59.2802 14.37C59.311 14.4294 59.3275 14.4951 59.3284 14.5619C59.3293 14.6288 59.3146 14.695 59.2855 14.7551C59.2564 14.8153 59.2136 14.8679 59.1606 14.9087C59.1076 14.9494 59.0458 14.9773 58.9802 14.99L58.2002 15.26C57.8602 15.38 57.7202 15.31 57.6002 14.96C57.4345 14.5329 57.1312 14.1731 56.7382 13.9377C56.3452 13.7023 55.885 13.6045 55.4302 13.66C53.9602 13.66 53.1602 14.37 53.1602 15.66V18.84C53.1602 20.15 53.9702 20.84 55.4302 20.84C56.8902 20.84 57.7902 20.17 57.7902 19.19V18.45H55.6202C55.2602 18.45 55.1302 18.31 55.1302 17.96V17.28C55.1302 16.93 55.2602 16.8 55.6202 16.8H59.0102Z" fill="#0A0C00"/>
<path d="M63.6201 15.74C63.6201 13.43 65.0801 12.04 67.6201 12.04C70.1601 12.04 71.6201 13.43 71.6201 15.74V18.82C71.6201 21.13 70.1501 22.52 67.6201 22.52C65.0901 22.52 63.6201 21.13 63.6201 18.82V15.74ZM69.9301 15.74C69.9301 14.44 69.1201 13.74 67.6701 13.74C66.2201 13.74 65.4001 14.45 65.4001 15.74V18.84C65.4001 20.15 66.2101 20.84 67.6701 20.84C69.1301 20.84 69.9301 20.12 69.9301 18.84V15.74Z" fill="#0A0C00"/>
<path d="M76.3301 12.54C76.3301 12.32 76.4001 12.25 76.6201 12.25H77.0801C77.3001 12.25 77.3501 12.32 77.3501 12.54V22.02C77.3501 22.24 77.3501 22.31 77.0801 22.31H76.6201C76.4001 22.31 76.3301 22.24 76.3301 22.02V12.54Z" fill="#0A0C00"/>
<path d="M86.4599 12.25C87.2927 12.25 88.0913 12.5808 88.6802 13.1697C89.2691 13.7585 89.5999 14.5572 89.5999 15.39C89.5999 16.2228 89.2691 17.0215 88.6802 17.6103C88.0913 18.1992 87.2927 18.53 86.4599 18.53H83.4599V22.02C83.4599 22.24 83.4099 22.31 83.1999 22.31H82.7299C82.5199 22.31 82.4399 22.24 82.4399 22.02V12.54C82.4399 12.32 82.5199 12.25 82.7299 12.25H86.4599ZM86.3699 17.54C86.6562 17.54 86.9397 17.4836 87.2042 17.3741C87.4686 17.2645 87.709 17.1039 87.9114 16.9015C88.1138 16.6991 88.2744 16.4587 88.384 16.1943C88.4935 15.9298 88.5499 15.6463 88.5499 15.36C88.5499 15.0737 88.4935 14.7902 88.384 14.5257C88.2744 14.2613 88.1138 14.0209 87.9114 13.8185C87.709 13.6161 87.4686 13.4555 87.2042 13.3459C86.9397 13.2364 86.6562 13.18 86.3699 13.18H83.3699V17.54H86.3699Z" fill="#0A0C00"/>
<path d="M97.4098 12.0501C98.1819 11.9649 98.9608 12.131 99.631 12.5237C100.301 12.9165 100.827 13.5149 101.13 14.2301C101.21 14.3901 101.13 14.5201 100.97 14.6001L100.53 14.8001C100.35 14.8701 100.28 14.8601 100.17 14.6701C99.9432 14.1393 99.5537 13.6943 99.0575 13.3995C98.5614 13.1047 97.9843 12.9753 97.4098 13.0301C95.7198 13.0301 94.7998 13.7001 94.7998 14.9001C94.79 15.2668 94.9131 15.6248 95.1466 15.9078C95.38 16.1908 95.7079 16.3799 96.0698 16.4401C96.6076 16.6155 97.1653 16.723 97.7298 16.7601C98.4131 16.7965 99.0872 16.9347 99.7298 17.1701C100.223 17.326 100.647 17.6466 100.931 18.0782C101.215 18.5098 101.342 19.026 101.29 19.5401C101.29 21.4101 99.9298 22.5401 97.4298 22.5401C96.6098 22.6339 95.7824 22.4439 95.0855 22.0017C94.3886 21.5596 93.8642 20.8919 93.5998 20.1101C93.5821 20.0745 93.5726 20.0354 93.5718 19.9956C93.571 19.9558 93.5791 19.9164 93.5953 19.8801C93.6115 19.8438 93.6356 19.8115 93.6658 19.7856C93.6959 19.7596 93.7314 19.7407 93.7698 19.7301L94.2098 19.5701C94.2444 19.5559 94.2817 19.5491 94.3191 19.5501C94.3565 19.5511 94.3933 19.5599 94.4272 19.5759C94.461 19.5919 94.4912 19.6147 94.5157 19.643C94.5403 19.6713 94.5587 19.7043 94.5698 19.7401C94.7935 20.305 95.1913 20.784 95.7055 21.1077C96.2197 21.4313 96.8237 21.5828 97.4298 21.5401C99.3198 21.5401 100.25 20.8801 100.25 19.5401C100.268 19.1879 100.16 18.8408 99.9452 18.5606C99.731 18.2805 99.4243 18.0854 99.0798 18.0101C98.5624 17.8558 98.0288 17.7618 97.4898 17.7301L96.4098 17.5901C96.0718 17.5184 95.738 17.4282 95.4098 17.3201C95.0856 17.2222 94.7834 17.0626 94.5198 16.8501C94.2545 16.6099 94.0454 16.3143 93.9071 15.9842C93.7689 15.6541 93.7049 15.2977 93.7198 14.9401C93.7898 13.1901 95.0998 12.0501 97.4098 12.0501Z" fill="#0A0C00"/>
<path d="M106.68 18.89C106.722 19.5972 107.033 20.2615 107.549 20.7472C108.065 21.2329 108.747 21.5033 109.455 21.5033C110.163 21.5033 110.845 21.2329 111.361 20.7472C111.877 20.2615 112.187 19.5972 112.23 18.89V12.54C112.23 12.32 112.3 12.25 112.52 12.25H112.98C113.2 12.25 113.27 12.32 113.27 12.54V18.88C113.27 21.15 111.93 22.52 109.46 22.52C106.99 22.52 105.65 21.15 105.65 18.88V12.54C105.65 12.32 105.72 12.25 105.93 12.25H106.4C106.61 12.25 106.68 12.32 106.68 12.54V18.89Z" fill="#0A0C00"/>
<path d="M127.07 12.25C127.29 12.25 127.36 12.32 127.36 12.54V22.02C127.36 22.24 127.29 22.31 127.07 22.31H126.65C126.44 22.31 126.37 22.24 126.37 22.02V16.25C126.37 15.4105 126.427 14.5719 126.54 13.74H126.48C126.168 14.5007 125.803 15.2391 125.39 15.95L123.24 19.74C123.214 19.8058 123.168 19.862 123.109 19.9013C123.05 19.9405 122.981 19.961 122.91 19.96H122.63C122.558 19.9604 122.488 19.9397 122.427 19.9007C122.367 19.8616 122.319 19.8058 122.29 19.74L120.11 15.91C119.723 15.2093 119.389 14.4806 119.11 13.73H119.05C119.152 14.5695 119.206 15.4143 119.21 16.26V22.02C119.21 22.24 119.14 22.31 118.92 22.31H118.53C118.31 22.31 118.24 22.24 118.24 22.02V12.54C118.24 12.32 118.31 12.25 118.53 12.25H118.89C118.972 12.2424 119.055 12.2603 119.126 12.3015C119.198 12.3427 119.255 12.4051 119.29 12.48L122.79 18.7L126.27 12.54C126.38 12.33 126.44 12.3 126.66 12.3L127.07 12.25Z" fill="#0A0C00"/>
<path d="M12.73 20.79V28.02C12.73 28.2972 12.6199 28.563 12.4239 28.7589C12.228 28.9549 11.9622 29.065 11.685 29.065C11.4079 29.065 11.1421 28.9549 10.9461 28.7589C10.7501 28.563 10.64 28.2972 10.64 28.02V20.8C10.931 21.0125 11.2798 21.1311 11.64 21.14C12.0326 21.1512 12.4173 21.0277 12.73 20.79ZM21.63 18.7C21.3648 18.7 21.1104 18.8054 20.9229 18.9929C20.7354 19.1804 20.63 19.4348 20.63 19.7V20.96C20.63 21.2372 20.7401 21.503 20.9361 21.6989C21.132 21.8949 21.3978 22.005 21.675 22.005C21.9522 22.005 22.218 21.8949 22.4139 21.6989C22.6099 21.503 22.72 21.2372 22.72 20.96V19.75C22.7278 19.6066 22.7046 19.4632 22.652 19.3296C22.5994 19.196 22.5187 19.0752 22.4152 18.9756C22.3118 18.876 22.1881 18.7998 22.0527 18.7522C21.9172 18.7047 21.773 18.6869 21.63 18.7ZM8.37 23.53C8.01017 23.5192 7.66183 23.4008 7.37 23.19V30.44C7.37 30.7185 7.48062 30.9856 7.67754 31.1825C7.87445 31.3794 8.14152 31.49 8.42 31.49C8.69848 31.49 8.96555 31.3794 9.16246 31.1825C9.35938 30.9856 9.47 30.7185 9.47 30.44V23.24C9.14345 23.4511 8.75816 23.5527 8.37 23.53ZM18.37 16.53C18.2345 16.5232 18.0991 16.5441 17.9719 16.5913C17.8448 16.6385 17.7286 16.7111 17.6303 16.8046C17.5321 16.8982 17.454 17.0107 17.4006 17.1354C17.3473 17.2601 17.3198 17.3944 17.32 17.53V23.1C17.32 23.3785 17.4306 23.6456 17.6275 23.8425C17.8245 24.0394 18.0915 24.15 18.37 24.15C18.6485 24.15 18.9156 24.0394 19.1125 23.8425C19.3094 23.6456 19.42 23.3785 19.42 23.1V17.6C19.428 17.4557 19.4046 17.3114 19.3514 17.177C19.2982 17.0426 19.2166 16.9213 19.112 16.8215C19.0074 16.7217 18.8825 16.6457 18.7458 16.5989C18.6091 16.552 18.4638 16.5353 18.32 16.55L18.37 16.53ZM15.05 18.67C14.6733 18.6674 14.3067 18.5487 14 18.33V25.6C14 25.8785 14.1106 26.1456 14.3075 26.3425C14.5045 26.5394 14.7715 26.65 15.05 26.65C15.3285 26.65 15.5955 26.5394 15.7925 26.3425C15.9894 26.1456 16.1 25.8785 16.1 25.6V18.34C15.7828 18.5763 15.3955 18.6995 15 18.69L15.05 18.67ZM6.1 24.24V3.93C6.09737 3.68243 5.99717 3.44591 5.82117 3.27178C5.64517 3.09765 5.40758 2.99999 5.16 3H4.94C4.69242 2.99999 4.45483 3.09765 4.27883 3.27178C4.10283 3.44591 4.00263 3.68243 4 3.93V24.24C4 24.4893 4.09904 24.7284 4.27532 24.9047C4.4516 25.081 4.6907 25.18 4.94 25.18H5.16C5.40931 25.18 5.6484 25.081 5.82468 24.9047C6.00097 24.7284 6.1 24.4893 6.1 24.24ZM8.48 22.76H8.26C8.0107 22.76 7.7716 22.661 7.59532 22.4847C7.41904 22.3084 7.32 22.0693 7.32 21.82V6.35C7.32264 6.10244 7.42283 5.8659 7.59883 5.69178C7.77483 5.51765 8.01242 5.41999 8.26 5.42H8.48C8.72758 5.41999 8.96517 5.51765 9.14117 5.69178C9.31717 5.8659 9.41737 6.10244 9.42 6.35V21.84C9.42 22.0893 9.32096 22.3284 9.14468 22.5047C8.9684 22.681 8.7293 22.78 8.48 22.78V22.76ZM11.79 20.38H11.56C11.3134 20.38 11.0768 20.282 10.9024 20.1076C10.728 19.9332 10.63 19.6967 10.63 19.45V8.75C10.6287 8.62703 10.6518 8.50502 10.6979 8.39103C10.744 8.27704 10.8123 8.17334 10.8988 8.08592C10.9853 7.9985 11.0883 7.9291 11.2018 7.88174C11.3153 7.83438 11.437 7.80999 11.56 7.81H11.79C12.0376 7.81264 12.2741 7.91283 12.4482 8.08883C12.6224 8.26483 12.72 8.50242 12.72 8.75V19.45C12.72 19.6967 12.622 19.9332 12.4476 20.1076C12.2732 20.282 12.0367 20.38 11.79 20.38ZM15.1 17.93H14.89C14.6424 17.93 14.4048 17.8324 14.2288 17.6582C14.0528 17.4841 13.9526 17.2476 13.95 17V11.24C13.9418 11.1116 13.96 10.9829 14.0036 10.8618C14.0471 10.7408 14.1151 10.6299 14.2032 10.5362C14.2913 10.4424 14.3977 10.3678 14.5159 10.3168C14.634 10.2659 14.7613 10.2397 14.89 10.24H15.11C15.3593 10.24 15.5984 10.339 15.7747 10.5153C15.951 10.6916 16.05 10.9307 16.05 11.18V16.98C16.0513 17.1043 16.028 17.2276 15.9813 17.3428C15.9347 17.458 15.8657 17.5628 15.7782 17.6512C15.6908 17.7395 15.5868 17.8096 15.472 17.8575C15.3573 17.9054 15.2343 17.93 15.11 17.93H15.1ZM18.42 15.78H18.2C17.9507 15.78 17.7116 15.681 17.5353 15.5047C17.359 15.3284 17.26 15.0893 17.26 14.84V13.35C17.2626 13.1024 17.3628 12.8659 17.5388 12.6918C17.7148 12.5176 17.9524 12.42 18.2 12.42H18.42C18.6676 12.42 18.9052 12.5176 19.0812 12.6918C19.2572 12.8659 19.3574 13.1024 19.36 13.35V14.84C19.36 15.0876 19.2624 15.3252 19.0882 15.5012C18.9141 15.6772 18.6776 15.7774 18.43 15.78H18.42Z" fill="#0A0C00"/>
</svg>
