<svg width="53" height="35" viewBox="0 0 53 35" fill="none" xmlns="http://www.w3.org/2000/svg">
<g clip-path="url(#clip0_328_4216)">
<path d="M49.2197 1.09375C49.2197 1.69781 49.7094 2.1875 50.3135 2.1875H51.4072C52.0113 2.1875 52.501 1.69781 52.501 1.09375C52.501 0.489689 52.0113 0 51.4072 0H50.3135C49.7094 0 49.2197 0.489689 49.2197 1.09375Z" fill="#0A0C00"/>
<path d="M17.501 35H22.8142L21.2674 33.4532C20.8572 33.043 20.3008 32.8125 19.7207 32.8125H17.501C9.0441 32.8125 2.18848 25.9569 2.18848 17.5C2.18848 9.04313 9.0441 2.18751 17.501 2.1875H35.001C43.4579 2.1875 50.3135 9.04313 50.3135 17.5C50.3135 25.9569 43.4579 32.8125 35.001 32.8125H28.4546C27.5843 32.8125 26.7497 32.4668 26.1343 31.8515L24.3222 30.0393C23.2966 29.0137 21.9056 28.4375 20.4552 28.4375H17.501C11.4603 28.4375 6.56348 23.5406 6.56348 17.5C6.56348 11.4593 11.4603 6.5625 17.501 6.5625H35.001C41.0416 6.5625 45.9385 11.4593 45.9385 17.5C45.9385 23.5406 41.0416 28.4375 35.001 28.4375H30.7976C29.9273 28.4375 29.0927 28.0918 28.4773 27.4765L26.6651 25.6643C25.6395 24.6387 24.2485 24.0625 22.7981 24.0625H17.501C13.8766 24.0625 10.9385 21.1243 10.9385 17.5C10.9385 13.8757 13.8766 10.9375 17.501 10.9375H35.001C38.6253 10.9375 41.5635 13.8757 41.5635 17.5C41.5635 21.0802 38.6965 23.9908 35.1333 24.0612L35.1326 24.0625H33.5319C32.6617 24.0625 31.8271 23.7168 31.2117 23.1015L29.3995 21.2893C28.558 20.4477 27.4705 19.9088 26.3059 19.7424L26.251 19.6875H17.501C16.2929 19.6875 15.3135 18.7081 15.3135 17.5C15.3135 16.2919 16.2929 15.3125 17.501 15.3125H35.001C36.2091 15.3125 37.1885 16.2919 37.1885 17.5C37.1885 18.7081 36.2091 19.6875 35.001 19.6875H30.626L32.1728 21.2343C32.583 21.6445 33.1394 21.875 33.7195 21.875H35.001C37.4172 21.875 39.376 19.9162 39.376 17.5C39.376 15.0838 37.4172 13.125 35.001 13.125H17.501C15.0848 13.125 13.126 15.0838 13.126 17.5C13.126 19.9162 15.0848 21.875 17.501 21.875H25.5325C26.4028 21.875 27.2374 22.2207 27.8528 22.836L29.665 24.6482C30.6905 25.6738 32.0815 26.25 33.5319 26.25H35.5479V26.2332C40.1256 25.9509 43.751 22.1488 43.751 17.5C43.751 12.6676 39.8334 8.75 35.001 8.75H17.501C12.6685 8.75 8.75098 12.6676 8.75098 17.5C8.75098 22.3325 12.6685 26.25 17.501 26.25H22.7981C23.6684 26.25 24.503 26.5957 25.1184 27.211L26.9306 29.0232C27.9562 30.0488 29.3472 30.625 30.7976 30.625H35.001C42.2497 30.625 48.126 24.7488 48.126 17.5C48.126 10.2512 42.2497 4.375 35.001 4.375H17.501C10.2522 4.375 4.37598 10.2512 4.37598 17.5C4.37598 24.7488 10.2522 30.625 17.501 30.625H20.4552C21.3254 30.625 22.16 30.9707 22.7754 31.586L24.5876 33.3982C25.6132 34.4238 27.0042 35 28.4546 35H35.001C44.666 35 52.501 27.165 52.501 17.5C52.501 7.83501 44.666 -8.44939e-07 35.001 0L17.501 3.61606e-06C7.83599 4.461e-06 0.000975718 7.83502 0.000976563 17.5C0.000977407 27.165 7.836 35 17.501 35Z" fill="#0A0C00"/>
</g>
<defs>
<clipPath id="clip0_328_4216">
<rect width="52.5" height="35" fill="white" transform="translate(0.000976562)"/>
</clipPath>
</defs>
</svg>
