<svg width="152" height="19" viewBox="0 0 152 19" fill="none" xmlns="http://www.w3.org/2000/svg">
<path d="M76.193 16.3741H71.073V2.68611H76.193V16.3741ZM71.573 15.8741H75.693V3.18611H71.573V15.8741ZM83.317 16.3741H78.3V2.68611H88.782C90.2836 2.56451 91.779 2.98608 92.996 3.87411C93.5199 4.35342 93.926 4.9473 94.1825 5.6094C94.4391 6.27151 94.5392 6.98394 94.475 7.69111C94.5498 8.91308 94.1609 10.1183 93.386 11.0661C92.469 12.1181 90.943 12.6601 88.851 12.6791C88.324 12.6931 84.375 12.6791 83.32 12.6791L83.317 16.3741ZM78.797 15.8741H82.817V12.1741H83.068C83.119 12.1741 88.246 12.1901 88.839 12.1741C90.788 12.1571 92.189 11.6741 93.008 10.7311C93.6978 9.87356 94.0404 8.78826 93.968 7.69011C94.0295 7.05648 93.9442 6.4172 93.7188 5.82185C93.4933 5.2265 93.1338 4.69108 92.668 4.25711C91.5396 3.44721 90.159 3.06704 88.775 3.18511H78.8L78.797 15.8741ZM87.72 9.60411H82.783V5.87811H87.753C88.1053 5.82943 88.4642 5.87055 88.7963 5.99764C89.1285 6.12474 89.4232 6.33369 89.653 6.60511C89.8615 6.95205 89.9598 7.35409 89.935 7.75811C89.9537 8.13321 89.8727 8.50658 89.7 8.84011C89.4629 9.12599 89.1562 9.34606 88.8094 9.47916C88.4627 9.61226 88.0875 9.65391 87.72 9.60011V9.60411ZM83.283 9.10411H87.72C88.54 9.10411 89.048 8.93311 89.273 8.58111C89.3969 8.32526 89.453 8.04187 89.436 7.75811C89.4579 7.46017 89.3933 7.16225 89.25 6.90011L89.244 6.89111C89.006 6.54111 88.533 6.37811 87.753 6.37811H83.283V9.10411ZM103.6 16.5761C99.11 16.5761 96.43 15.4611 95.409 13.1681C95.2419 12.7252 95.1285 12.2639 95.071 11.7941L95.027 11.5061H100.369L100.404 11.7161C100.445 11.9293 100.536 12.13 100.668 12.3021C100.879 12.5571 101.583 12.9851 103.919 12.9851C106.727 12.9851 106.727 12.4921 106.727 12.2271C106.727 11.7801 106.402 11.6271 104.112 11.3831L103.677 11.3421C102.815 11.2611 101.725 11.1581 101.227 11.1151C97.027 10.7351 95.152 9.43011 95.152 6.88511C95.152 4.21211 98.343 2.48511 103.282 2.48511C107.311 2.48511 109.907 3.54711 110.996 5.64411C111.254 6.13189 111.428 6.6601 111.509 7.20611L111.544 7.48711H106.196L106.174 7.26111C106.153 7.08449 106.078 6.9188 105.958 6.78711C105.758 6.51911 105.126 6.07611 103.164 6.07611C100.755 6.07611 100.423 6.38411 100.423 6.71611C100.423 7.15911 101.184 7.31611 103.623 7.57711C104.64 7.66011 106.275 7.82811 106.835 7.89611C110.356 8.27811 111.927 9.55111 111.927 12.0251C111.928 14.1001 110.483 16.5761 103.6 16.5761ZM95.611 12.0061C95.6611 12.3359 95.7473 12.6591 95.868 12.9701C96.798 15.0591 99.328 16.0761 103.6 16.0761C107.172 16.0761 111.431 15.3761 111.431 12.0251C111.431 9.83211 110.041 8.74611 106.782 8.39311C106.222 8.32511 104.597 8.15811 103.582 8.07411C100.982 7.79211 99.925 7.64211 99.925 6.71611C99.925 5.75811 101.064 5.57611 103.166 5.57611C104.827 5.57611 105.9 5.87611 106.355 6.48111C106.479 6.63016 106.573 6.80206 106.631 6.98711H110.965C110.878 6.60036 110.74 6.2268 110.555 5.87611C109.555 3.95711 107.112 2.98511 103.284 2.98511C98.649 2.98511 95.654 4.51611 95.654 6.88511C95.654 9.14511 97.335 10.2611 101.273 10.6171C101.773 10.6601 102.862 10.7631 103.726 10.8451L104.164 10.8861C106.291 11.1101 107.229 11.2501 107.229 12.2271C107.229 13.2791 106.016 13.4851 103.921 13.4851C101.983 13.4851 100.759 13.1941 100.286 12.6211C100.14 12.4384 100.03 12.2297 99.962 12.0061H95.611ZM121.427 16.5591C116.207 16.5591 113.327 14.4481 113.327 10.6141V2.68611H118.379V10.6141C118.379 11.9291 119.556 12.6831 121.607 12.6831C123.567 12.6831 124.784 11.8961 124.784 10.6311V2.68611H129.784V11.0341C129.789 14.5451 126.74 16.5591 121.424 16.5591H121.427ZM113.827 3.18611V10.6141C113.827 15.3521 118.585 16.0591 121.427 16.0591C124.365 16.0591 129.292 15.4061 129.292 11.0341V3.18611H125.292V10.6311C125.292 12.1811 123.848 13.1831 121.615 13.1831C119.281 13.1831 117.887 12.2231 117.887 10.6141V3.18611H113.827ZM150.972 16.3741H146.204V10.1941L143.5 16.3741H139.341L136.665 10.2061V16.3741H131.88V2.68611H138.174L141.444 10.2331L144.872 2.68611H150.978L150.972 16.3741ZM146.704 15.8741H150.472V3.18611H145.19L141.428 11.4651L137.842 3.18611H132.376V15.8741H136.161V7.80011L139.661 15.8771H143.161L146.698 7.81211L146.704 15.8741ZM6.554 2.93611H2V16.1241H14.584V12.6131H6.554V2.93611ZM23.776 2.63611C17.963 2.63611 14.906 5.39111 14.906 9.43611C14.906 14.0061 18.115 16.3241 23.776 16.3241C30.008 16.3241 32.629 13.6361 32.629 9.43611C32.629 5.17111 29.672 2.63411 23.776 2.63411V2.63611ZM23.759 6.06311C24.1547 6.06125 24.5502 6.08429 24.943 6.13211L19.852 11.2231C19.6111 10.6782 19.4936 10.0867 19.508 9.49111C19.508 7.42211 20.55 6.06111 23.759 6.06111V6.06311ZM23.776 12.9511C23.3947 12.9528 23.0137 12.9314 22.635 12.8871L27.735 7.78711C27.9669 8.32301 28.0779 8.90344 28.06 9.48711C28.06 11.5001 27.1 12.9491 23.776 12.9491V12.9511ZM41.652 11.1511H46.339C46.27 11.4764 46.1262 11.7811 45.919 12.0411C44.9473 12.8327 43.7072 13.2179 42.458 13.1161C41.8292 13.1834 41.1934 13.1147 40.5935 12.9147C39.9936 12.7148 39.4436 12.3882 38.981 11.9571C38.5071 11.262 38.282 10.4272 38.342 9.58811C38.2653 8.70885 38.5101 7.83163 39.031 7.11911C39.686 6.37911 40.795 6.06011 42.425 6.06011C43.4621 5.97424 44.4979 6.24059 45.365 6.81611C45.6383 7.03319 45.8426 7.32502 45.953 7.65611H50.3C50.2684 7.11058 50.1372 6.57544 49.913 6.07711C48.872 3.96011 46.452 2.70011 42.337 2.70011C38.758 2.70011 36.356 3.79211 35.029 5.43911C34.1526 6.62847 33.7027 8.07855 33.752 9.55511C33.6953 11.0651 34.1336 12.5522 35 13.7901C36.311 15.4901 38.646 16.3261 41.452 16.3261C43.3175 16.4562 45.1703 15.9337 46.693 14.8481L46.811 16.1241H50.422V8.31211H41.652V11.1511ZM60.671 2.63311C54.859 2.63311 51.801 5.38811 51.801 9.43311C51.801 14.0031 55.009 16.3211 60.671 16.3211C66.904 16.3211 69.525 13.6331 69.525 9.43311C69.525 5.17111 66.568 2.63411 60.671 2.63411V2.63311ZM60.655 6.06011C61.0403 6.05897 61.4253 6.08101 61.808 6.12611L56.737 11.2001C56.5036 10.6612 56.39 10.0782 56.404 9.49111C56.4 7.42211 57.446 6.06111 60.655 6.06111V6.06011ZM60.671 12.9481C60.2796 12.9498 59.8885 12.927 59.5 12.8801L64.617 7.76211C64.8577 8.30514 64.9729 8.89543 64.954 9.48911C64.956 11.5001 64 12.9491 60.671 12.9491V12.9481Z" fill="#151515"/>
</svg>
