<svg width="164" height="35" viewBox="0 0 164 35" fill="none" xmlns="http://www.w3.org/2000/svg">
<path d="M26.1554 15.5994C25.7132 16.0442 25.3747 16.5811 25.1637 17.1717C24.9528 17.7624 24.8747 18.3923 24.9351 19.0166L24.9141 18.9956C24.9761 19.7304 24.877 20.4699 24.6237 21.1625C24.3704 21.8551 23.9691 22.484 23.4477 23.0055C22.9262 23.5269 22.2972 23.9283 21.6046 24.1815C20.912 24.4348 20.1725 24.534 19.4377 24.4719L19.4587 24.4929C18.5798 24.4111 17.6969 24.6023 16.9306 25.0406C16.1643 25.479 15.5518 26.1429 15.1767 26.9421C14.8016 27.7412 14.682 28.6365 14.8344 29.5062C14.9869 30.3757 15.4037 31.1771 16.0283 31.801C16.6528 32.4249 17.4545 32.8411 18.3241 32.9926C19.1939 33.1443 20.0891 33.0239 20.8879 32.6481C21.6867 32.2722 22.3501 31.6593 22.7877 30.8925C23.2253 30.1258 23.4158 29.2429 23.3332 28.3639L23.3554 28.3849C23.2933 27.6501 23.3924 26.9106 23.6457 26.2179C23.8989 25.5254 24.3004 24.8964 24.8218 24.3749C25.3433 23.8536 25.9722 23.4521 26.6648 23.1989C27.3574 22.9457 28.0968 22.8465 28.8317 22.9086L28.8096 22.8876C29.5275 22.9521 30.2503 22.8344 30.9107 22.5453C31.5711 22.2562 32.1479 21.805 32.5875 21.2337C33.0271 20.6624 33.3155 19.9892 33.4256 19.2768C33.5358 18.5644 33.4644 17.8357 33.218 17.1581C32.9716 16.4806 32.5582 15.8762 32.016 15.4011C31.4739 14.9259 30.8205 14.5952 30.1166 14.4398C29.4126 14.2844 28.6808 14.3092 27.9889 14.5118C27.2971 14.7146 26.6677 15.0886 26.1589 15.5994H26.1554Z" fill="#0A0C00"/>
<path d="M17.549 21.742L17.5269 21.721C18.1514 21.7839 18.7821 21.7073 19.3735 21.4966C19.9647 21.2859 20.5019 20.9465 20.9459 20.5028C21.3898 20.0591 21.7298 19.5222 21.9408 18.9311C22.152 18.3399 22.2291 17.7093 22.1667 17.0847L22.1888 17.1057C22.1268 16.3708 22.2259 15.6314 22.4791 14.9387C22.7324 14.2462 23.1339 13.6173 23.6552 13.0958C24.1767 12.5744 24.8057 12.1729 25.4982 11.9198C26.1909 11.6664 26.9303 11.5673 27.6652 11.6294L27.643 11.6084C28.5221 11.691 29.4052 11.5003 30.1719 11.0625C30.9387 10.6247 31.5517 9.961 31.9274 9.16199C32.303 8.36298 32.4231 7.46753 32.2712 6.59777C32.1193 5.72801 31.7028 4.9263 31.0784 4.30197C30.4541 3.67765 29.6524 3.2611 28.7826 3.10918C27.9129 2.95724 27.0175 3.07731 26.2184 3.453C25.4194 3.82867 24.7558 4.4417 24.3179 5.20844C23.8801 5.97518 23.6894 6.85831 23.772 7.73737L23.751 7.7152C23.8132 8.45007 23.7143 9.18967 23.4611 9.88234C23.2079 10.575 22.8065 11.2041 22.2851 11.7256C21.7636 12.247 21.1345 12.6485 20.4419 12.9016C19.7491 13.1548 19.0096 13.2537 18.2747 13.1915L18.2957 13.2137C17.6712 13.1508 17.0404 13.2275 16.4491 13.4382C15.8578 13.6488 15.3207 13.9883 14.8767 14.4319C14.4326 14.8756 14.0928 15.4125 13.8816 16.0037C13.6706 16.5948 13.5934 17.2254 13.6559 17.85L13.6349 17.829C13.6967 18.5638 13.5974 19.3032 13.3441 19.9958C13.0907 20.6882 12.6894 21.3171 12.168 21.8385C11.6466 22.3599 11.0177 22.7612 10.3252 23.0146C9.63272 23.2679 8.8933 23.3672 8.15852 23.3054L8.17952 23.3264C7.30046 23.2438 6.41733 23.4344 5.65058 23.8723C4.88385 24.3101 4.27082 24.9737 3.89514 25.7728C3.51945 26.5718 3.39938 27.4672 3.55132 28.337C3.70325 29.2067 4.1198 30.0085 4.74412 30.6327C5.36845 31.2571 6.17016 31.6736 7.03992 31.8255C7.90968 31.9774 8.80513 31.8574 9.60415 31.4817C10.4031 31.1061 11.0668 30.4931 11.5046 29.7264C11.9425 28.9595 12.1331 28.0765 12.0505 27.1974L12.0727 27.2184C12.0106 26.4835 12.1098 25.7441 12.3631 25.0514C12.6162 24.3589 13.0177 23.7299 13.5391 23.2084C14.0606 22.687 14.6895 22.2856 15.3821 22.0324C16.0747 21.7791 16.8141 21.68 17.549 21.742Z" fill="#0A0C00"/>
<path d="M9.72992 19.4005C10.1721 18.9558 10.5107 18.4189 10.7214 17.8282C10.9321 17.2375 11.0099 16.6075 10.9491 15.9833L10.9712 16.0043C10.9092 15.2693 11.0083 14.5296 11.2617 13.8368C11.5151 13.144 11.9167 12.515 12.4385 11.9935C12.9602 11.472 13.5894 11.0707 14.2823 10.8176C14.9751 10.5644 15.7149 10.4656 16.4499 10.528L16.4278 10.507C17.3065 10.5893 18.1893 10.3986 18.9557 9.96082C19.7221 9.52306 20.3347 8.85954 20.7102 8.06078C21.0857 7.26201 21.2056 6.36688 21.0537 5.49745C20.9018 4.62801 20.4853 3.82661 19.8613 3.20251C19.2372 2.57841 18.4357 2.16201 17.5663 2.01008C16.6969 1.85815 15.8017 1.97811 15.003 2.35356C14.2042 2.72902 13.5407 3.34172 13.103 4.1081C12.6651 4.87448 12.4744 5.75725 12.5568 6.63601L12.5358 6.61501C12.5978 7.34984 12.4987 8.08935 12.2454 8.78193C11.9921 9.47451 11.5908 10.1035 11.0693 10.6249C10.5479 11.1464 9.91891 11.5477 9.22633 11.801C8.53375 12.0542 7.79425 12.1534 7.05942 12.0913L7.08042 12.1123C6.36242 12.0479 5.63977 12.1659 4.97946 12.4551C4.31915 12.7443 3.74253 13.1956 3.30303 13.767C2.86354 14.3383 2.5754 15.0115 2.46529 15.7239C2.35519 16.4364 2.42669 17.1651 2.67317 17.8424C2.91966 18.5199 3.33316 19.1241 3.87534 19.5992C4.41753 20.0744 5.07086 20.4049 5.7748 20.5603C6.47874 20.7156 7.2105 20.6907 7.9023 20.4881C8.59409 20.2853 9.22351 19.9113 9.73224 19.4005H9.72992Z" fill="#0A0C00"/>
<path d="M45.8696 7.76416H49.3346V24.626H45.8696V7.76416Z" fill="#0A0C00"/>
<path d="M51.297 18.8523C51.2923 17.6406 51.6472 16.4546 52.3168 15.4447C52.9865 14.4348 53.9408 13.6464 55.059 13.1794C56.1771 12.7122 57.4086 12.5875 58.5977 12.821C59.7868 13.0544 60.8798 13.6354 61.7384 14.4906C62.5969 15.3456 63.1823 16.4364 63.4206 17.6245C63.6588 18.8126 63.539 20.0447 63.0764 21.1647C62.6138 22.2846 61.8292 23.2422 60.8221 23.9159C59.8148 24.5896 58.6304 24.9493 57.4185 24.9493C56.6142 24.9585 55.8161 24.8072 55.0709 24.5043C54.3256 24.2015 53.6482 23.7531 53.0783 23.1855C52.5083 22.6178 52.0572 21.9422 51.7515 21.1982C51.4456 20.4542 51.2911 19.6567 51.297 18.8523ZM60.075 18.8523C60.0606 18.33 59.8925 17.8235 59.5918 17.3962C59.291 16.9689 58.871 16.6397 58.3843 16.4499C57.8975 16.26 57.3656 16.2177 56.8549 16.3286C56.3443 16.4394 55.8776 16.6982 55.5133 17.0728C55.149 17.4473 54.9031 17.9209 54.8066 18.4345C54.71 18.948 54.7668 19.4786 54.9702 19.9599C55.1735 20.4413 55.5142 20.852 55.9496 21.1407C56.3851 21.4295 56.8961 21.5835 57.4185 21.5835C57.7764 21.593 58.1323 21.5283 58.464 21.3934C58.7956 21.2585 59.0956 21.0565 59.3452 20.7999C59.5947 20.5433 59.7885 20.2377 59.914 19.9025C60.0397 19.5673 60.0945 19.2098 60.075 18.8523Z" fill="#0A0C00"/>
<path d="M77.3501 13.0773V24.0439C77.3501 27.9243 74.3237 29.5646 71.2519 29.5646C70.1704 29.6456 69.0874 29.4271 68.1217 28.9332C67.1562 28.4392 66.3452 27.689 65.7779 26.7646L68.7342 25.0554C68.9727 25.5373 69.3527 25.9348 69.8232 26.1948C70.2938 26.4547 70.8326 26.5649 71.3674 26.5103C71.7092 26.5576 72.0574 26.5275 72.386 26.4222C72.7145 26.3168 73.0153 26.1389 73.2659 25.9017C73.5165 25.6644 73.7105 25.3739 73.8337 25.0515C73.9568 24.7291 74.0058 24.3832 73.9772 24.0393V22.9834C73.5715 23.4799 73.0551 23.8743 72.4693 24.1351C71.8835 24.3958 71.2449 24.5156 70.6044 24.4849C69.0805 24.4369 67.6351 23.7978 66.5741 22.7027C65.5132 21.6078 64.9199 20.143 64.9199 18.6184C64.9199 17.0938 65.5132 15.6289 66.5741 14.534C67.6351 13.4389 69.0805 12.7998 70.6044 12.7518C71.2449 12.7211 71.8835 12.8409 72.4693 13.1017C73.0551 13.3624 73.5715 13.7569 73.9772 14.2533V13.0749L77.3501 13.0773ZM73.9784 18.6201C74.0017 18.0617 73.8573 17.5091 73.5639 17.0334C73.2705 16.5577 72.8414 16.1807 72.3319 15.951C71.8224 15.7212 71.2559 15.6492 70.7051 15.7442C70.1543 15.8391 69.6446 16.0967 69.2414 16.4839C68.8383 16.871 68.5603 17.3699 68.443 17.9164C68.3259 18.4628 68.3749 19.0319 68.584 19.5503C68.7929 20.0686 69.1522 20.5127 69.6156 20.8251C70.079 21.1375 70.6254 21.3041 71.1842 21.3034C71.5483 21.3289 71.9136 21.2778 72.2567 21.1534C72.5999 21.029 72.9131 20.8341 73.1763 20.5814C73.4395 20.3286 73.6469 20.0235 73.7851 19.6856C73.9232 19.3479 73.9891 18.9849 73.9784 18.6201Z" fill="#0A0C00"/>
<path d="M79.3122 18.8523C79.3074 17.6406 79.6622 16.4546 80.332 15.4447C81.0016 14.4348 81.956 13.6464 83.0741 13.1794C84.1922 12.7122 85.4238 12.5875 86.6128 12.821C87.8019 13.0544 88.8949 13.6354 89.7535 14.4906C90.612 15.3456 91.1975 16.4364 91.4357 17.6245C91.6739 18.8126 91.5541 20.0447 91.0915 21.1647C90.629 22.2846 89.8444 23.2422 88.8372 23.9159C87.8299 24.5896 86.6455 24.9493 85.4337 24.9493C84.6294 24.9585 83.8311 24.8072 83.086 24.5043C82.3407 24.2015 81.6634 23.7531 81.0934 23.1855C80.5234 22.6178 80.0724 21.9422 79.7666 21.1982C79.4607 20.4542 79.3062 19.6567 79.3122 18.8523ZM88.0902 18.8523C88.0757 18.33 87.9076 17.8235 87.6069 17.3962C87.3062 16.9689 86.8862 16.6397 86.3994 16.4499C85.9126 16.26 85.3806 16.2177 84.8701 16.3286C84.3594 16.4394 83.8927 16.6982 83.5284 17.0728C83.1642 17.4473 82.9182 17.9209 82.8216 18.4345C82.725 18.948 82.782 19.4786 82.9853 19.9599C83.1887 20.4413 83.5293 20.852 83.9647 21.1407C84.4002 21.4295 84.9111 21.5835 85.4337 21.5835C85.7915 21.593 86.1474 21.5283 86.479 21.3934C86.8107 21.2585 87.1108 21.0565 87.3603 20.7999C87.6099 20.5433 87.8036 20.2377 87.9292 19.9025C88.0548 19.5673 88.1097 19.2098 88.0902 18.8523Z" fill="#0A0C00"/>
<path d="M93.1714 9.98208C93.1714 9.57089 93.2933 9.16894 93.5217 8.82706C93.7502 8.48516 94.075 8.21869 94.4548 8.06134C94.8347 7.90398 95.2527 7.86281 95.656 7.94303C96.0592 8.02325 96.4298 8.22125 96.7205 8.51201C97.0112 8.80275 97.2092 9.17319 97.2895 9.57649C97.3696 9.97977 97.3285 10.3978 97.1712 10.7777C97.0138 11.1576 96.7473 11.4823 96.4054 11.7107C96.0636 11.9392 95.6616 12.0611 95.2504 12.0611C94.7008 12.0556 94.1751 11.8349 93.7863 11.4461C93.3977 11.0574 93.1769 10.5318 93.1714 9.98208ZM93.5214 13.0772H96.9876V24.6272H93.5167L93.5214 13.0772Z" fill="#0A0C00"/>
<path d="M111.949 18.8522C111.989 19.6155 111.877 20.3792 111.621 21.0994C111.365 21.8196 110.969 22.482 110.456 23.0487C109.943 23.6152 109.323 24.0749 108.632 24.4011C107.94 24.7271 107.192 24.9135 106.428 24.9492C105.786 24.9842 105.144 24.8759 104.549 24.6322C103.954 24.3883 103.421 24.0152 102.987 23.5398V29.246H99.5225V13.0772H102.987V14.1622C103.421 13.6871 103.954 13.3142 104.549 13.0707C105.144 12.8271 105.786 12.719 106.428 12.754C107.192 12.7896 107.941 12.9758 108.632 13.302C109.324 13.6282 109.944 14.0878 110.457 14.6546C110.97 15.2214 111.366 15.884 111.622 16.6045C111.878 17.3248 111.989 18.0887 111.949 18.8522ZM108.484 18.8522C108.47 18.3116 108.297 17.7871 107.987 17.3441C107.677 16.9013 107.243 16.5597 106.74 16.3623C106.236 16.1647 105.686 16.1201 105.157 16.2339C104.629 16.3477 104.145 16.6148 103.768 17.0019C103.39 17.3892 103.136 17.8789 103.035 18.4103C102.935 18.9416 102.993 19.4907 103.203 19.989C103.413 20.4872 103.766 20.9124 104.216 21.2114C104.667 21.5103 105.195 21.6698 105.736 21.6697C106.107 21.6862 106.478 21.624 106.823 21.4873C107.169 21.3507 107.482 21.1424 107.741 20.8764C108.001 20.6103 108.201 20.2925 108.329 19.9437C108.457 19.5949 108.51 19.2228 108.484 18.8522Z" fill="#0A0C00"/>
<path d="M122.641 21.161C122.641 23.8175 120.332 24.9492 117.838 24.9492C116.83 25.0404 115.818 24.8274 114.933 24.3372C114.047 23.8472 113.329 23.1029 112.872 22.2005L115.873 20.4913C115.995 20.9084 116.256 21.2714 116.612 21.5193C116.969 21.7673 117.401 21.8855 117.833 21.854C118.664 21.854 119.081 21.5997 119.081 21.1388C119.081 19.8672 113.398 20.538 113.398 16.5422C113.398 14.0233 115.523 12.754 117.926 12.754C118.829 12.7254 119.722 12.9396 120.514 13.3742C121.307 13.8089 121.968 14.448 122.429 15.225L119.473 16.8187C119.343 16.5161 119.127 16.2584 118.852 16.0777C118.577 15.897 118.255 15.8013 117.926 15.8025C117.325 15.8025 116.955 16.0358 116.955 16.4488C116.96 17.766 122.641 16.8875 122.641 21.161Z" fill="#0A0C00"/>
<path d="M135.298 13.0771V24.6271H131.833V23.541C131.433 24.0202 130.926 24.3979 130.352 24.6429C129.778 24.8879 129.155 24.9932 128.532 24.9503C126.198 24.9503 124.215 23.2878 124.215 20.167V13.0771H127.68V19.6595C127.651 19.9346 127.682 20.2127 127.772 20.4744C127.861 20.7362 128.007 20.9754 128.198 21.1752C128.389 21.3751 128.621 21.5308 128.879 21.6317C129.136 21.7326 129.412 21.7763 129.689 21.7595C130.959 21.7595 131.837 21.021 131.837 19.3806V13.0806L135.298 13.0771Z" fill="#0A0C00"/>
<path d="M155.167 17.5351V24.6261H151.702V17.8349C151.702 16.6799 151.147 15.9414 150.039 15.9414C148.884 15.9414 148.237 16.7499 148.237 18.1126V24.6261H144.773V17.8349C144.773 16.6799 144.219 15.9414 143.109 15.9414C141.954 15.9414 141.308 16.7499 141.308 18.1126V24.6261H137.843V13.0761H141.308V14.1378C141.667 13.6668 142.138 13.2932 142.679 13.0514C143.22 12.8094 143.813 12.7069 144.403 12.7529C144.996 12.7239 145.586 12.8491 146.117 13.1161C146.646 13.3831 147.098 13.783 147.428 14.2766C147.812 13.7601 148.321 13.3495 148.906 13.083C149.492 12.8165 150.136 12.703 150.778 12.7529C153.429 12.7541 155.167 14.6476 155.167 17.5351Z" fill="#0A0C00"/>
<path d="M158.097 13.0059C159.517 13.0059 160.669 11.8547 160.669 10.4346C160.669 9.0145 159.517 7.86328 158.097 7.86328C156.677 7.86328 155.526 9.0145 155.526 10.4346C155.526 11.8547 156.677 13.0059 158.097 13.0059Z" fill="#0A0C00"/>
</svg>
