<svg width="250" height="70" viewBox="0 0 250 70" fill="none" xmlns="http://www.w3.org/2000/svg">
<path d="M7.99455 31.8029H55.1797V45.3486H7.99455V31.8029ZM56.7439 5.55288V19.0986H8.34214L16.4236 11.274V68.6538H0V5.55288H56.7439Z" fill="#F6F5F3"/>
<path d="M59.4296 20.6971H75.7663L78.7208 37.9447V68.6538H62.5579V36.6827L59.4296 20.6971ZM102.357 20.024V33.4856C100.793 33.149 99.2285 32.8966 97.6644 32.7284C96.1581 32.5601 94.7678 32.476 93.4933 32.476C90.7126 32.476 88.1926 33.0369 85.9332 34.1587C83.7318 35.2244 81.9649 36.9351 80.6325 39.2909C79.358 41.6466 78.7208 44.7035 78.7208 48.4615L75.5056 44.5913C75.9111 41.1699 76.5773 37.9447 77.5042 34.9159C78.4311 31.887 79.7056 29.2228 81.3277 26.9231C82.9498 24.5673 84.9484 22.7163 87.3236 21.3702C89.7567 20.024 92.6823 19.351 96.1002 19.351C97.0851 19.351 98.1278 19.4071 99.2285 19.5192C100.329 19.6314 101.372 19.7997 102.357 20.024Z" fill="#F6F5F3"/>
<path d="M106.267 20.024L114.261 21.6226L122.343 20.024V68.6538H106.267V20.024ZM114.348 15.649C111.509 15.649 109.192 14.9479 107.396 13.5457C105.6 12.0873 104.702 10.1803 104.702 7.82452C104.702 5.41266 105.6 3.50561 107.396 2.10337C109.192 0.701123 111.509 0 114.348 0C117.245 0 119.562 0.701123 121.3 2.10337C123.038 3.50561 123.907 5.41266 123.907 7.82452C123.907 10.1803 123.038 12.0873 121.3 13.5457C119.562 14.9479 117.245 15.649 114.348 15.649Z" fill="#F6F5F3"/>
<path d="M185.924 53.2572C185.924 56.847 184.823 59.9039 182.622 62.4279C180.479 64.8958 177.321 66.7748 173.15 68.0649C168.979 69.355 163.91 70 157.943 70C151.86 70 146.531 69.2708 141.954 67.8125C137.378 66.3542 133.815 64.3069 131.266 61.6707C128.717 59.0345 127.355 55.9776 127.182 52.5H143.605C143.953 53.9022 144.764 55.1362 146.038 56.2019C147.371 57.2676 149.08 58.0809 151.165 58.6418C153.251 59.1466 155.713 59.399 158.551 59.399C162.375 59.399 165.272 59.0064 167.241 58.2212C169.211 57.4359 170.196 56.258 170.196 54.6875C170.196 53.5096 169.472 52.6122 168.023 51.9952C166.633 51.3782 164.113 50.9295 160.463 50.649L151.426 49.976C145.749 49.5833 141.23 48.7139 137.87 47.3678C134.51 46.0216 132.106 44.3109 130.657 42.2356C129.267 40.1603 128.572 37.8325 128.572 35.2524C128.572 31.7188 129.702 28.774 131.961 26.4183C134.278 24.0625 137.464 22.2957 141.52 21.1178C145.575 19.9399 150.325 19.351 155.771 19.351C161.216 19.351 166.054 20.0521 170.283 21.4543C174.57 22.8566 177.988 24.7917 180.537 27.2596C183.143 29.7276 184.621 32.6162 184.968 35.9255H168.545C168.313 34.8037 167.676 33.766 166.633 32.8125C165.648 31.859 164.2 31.1018 162.288 30.5409C160.434 29.9239 158.001 29.6154 154.989 29.6154C151.571 29.6154 148.964 29.98 147.168 30.7091C145.372 31.4383 144.474 32.504 144.474 33.9063C144.474 34.972 145.024 35.8133 146.125 36.4303C147.226 37.0473 149.311 37.496 152.382 37.7764L164.113 38.6178C169.674 39.0665 174.019 39.9359 177.148 41.226C180.334 42.4599 182.593 44.0865 183.925 46.1058C185.258 48.125 185.924 50.5088 185.924 53.2572Z" fill="#F6F5F3"/>
<path d="M207.42 55.9495L202.989 54.5192L231.404 20.6971H248.697L205.856 68.6538H191.344V3.87019H207.42V55.9495ZM217.327 45.1803L229.318 36.6827L250 68.6538H231.665L217.327 45.1803Z" fill="#F6F5F3"/>
</svg>
