<svg width="86" height="24" viewBox="0 0 86 24" fill="none" xmlns="http://www.w3.org/2000/svg">
<path d="M2.75012 10.9038H18.9818V15.5481H2.75012V10.9038ZM19.5199 1.90385V6.54808H2.8697L5.64971 3.86538V23.5385H0V1.90385H19.5199Z" fill="#F6F5F3"/>
<path d="M20.4438 7.09615H26.0636L27.0799 13.0096V23.5385H21.5199V12.5769L20.4438 7.09615ZM35.2107 6.86539V11.4808C34.6727 11.3654 34.1346 11.2788 33.5965 11.2212C33.0784 11.1635 32.6001 11.1346 32.1617 11.1346C31.2051 11.1346 30.3382 11.3269 29.561 11.7115C28.8038 12.0769 28.1959 12.6635 27.7376 13.4712C27.2992 14.2788 27.0799 15.3269 27.0799 16.6154L25.9739 15.2885C26.1134 14.1154 26.3426 13.0096 26.6614 11.9712C26.9803 10.9327 27.4187 10.0192 27.9767 9.23077C28.5347 8.42308 29.2222 7.78846 30.0393 7.32692C30.8763 6.86539 31.8827 6.63462 33.0585 6.63462C33.3973 6.63462 33.756 6.65385 34.1346 6.69231C34.5132 6.73077 34.872 6.78846 35.2107 6.86539Z" fill="#F6F5F3"/>
<path d="M36.5557 6.86539L39.3058 7.41346L42.0858 6.86539V23.5385H36.5557V6.86539ZM39.3357 5.36538C38.3592 5.36538 37.5621 5.125 36.9443 4.64423C36.3265 4.14423 36.0176 3.49038 36.0176 2.68269C36.0176 1.85577 36.3265 1.20192 36.9443 0.721155C37.5621 0.240385 38.3592 0 39.3357 0C40.3321 0 41.1293 0.240385 41.7271 0.721155C42.325 1.20192 42.6239 1.85577 42.6239 2.68269C42.6239 3.49038 42.325 4.14423 41.7271 4.64423C41.1293 5.125 40.3321 5.36538 39.3357 5.36538Z" fill="#F6F5F3"/>
<path d="M63.9579 18.2596C63.9579 19.4904 63.5793 20.5385 62.822 21.4038C62.0846 22.25 60.9985 22.8942 59.5637 23.3365C58.1288 23.7788 56.3851 24 54.3325 24C52.24 24 50.4066 23.75 48.8322 23.25C47.2579 22.75 46.0323 22.0481 45.1554 21.1442C44.2786 20.2404 43.8103 19.1923 43.7505 18H49.4002C49.5197 18.4808 49.7987 18.9038 50.2372 19.2692C50.6955 19.6346 51.2834 19.9135 52.0008 20.1058C52.7183 20.2788 53.5652 20.3654 54.5417 20.3654C55.857 20.3654 56.8534 20.2308 57.531 19.9615C58.2085 19.6923 58.5473 19.2885 58.5473 18.75C58.5473 18.3462 58.2982 18.0385 57.8 17.8269C57.3217 17.6154 56.4548 17.4615 55.1994 17.3654L52.0905 17.1346C50.1375 17 48.5831 16.7019 47.4273 16.2404C46.2714 15.7788 45.4444 15.1923 44.9462 14.4808C44.4679 13.7692 44.2287 12.9712 44.2287 12.0865C44.2287 10.875 44.6174 9.86539 45.3946 9.05769C46.1917 8.25 47.2878 7.64423 48.6828 7.24039C50.0777 6.83654 51.7119 6.63462 53.5852 6.63462C55.4584 6.63462 57.1224 6.875 58.5772 7.35577C60.0519 7.83654 61.2277 8.5 62.1046 9.34616C63.0013 10.1923 63.5095 11.1827 63.6291 12.3173H57.9794C57.8997 11.9327 57.6804 11.5769 57.3217 11.25C56.9829 10.9231 56.4847 10.6635 55.8271 10.4712C55.1894 10.2596 54.3524 10.1538 53.3161 10.1538C52.1403 10.1538 51.2436 10.2788 50.6258 10.5288C50.008 10.7788 49.6991 11.1442 49.6991 11.625C49.6991 11.9904 49.8884 12.2788 50.2671 12.4904C50.6457 12.7019 51.3631 12.8558 52.4193 12.9519L56.4548 13.2404C58.368 13.3942 59.8626 13.6923 60.9387 14.1346C62.0348 14.5577 62.812 15.1154 63.2704 15.8077C63.7287 16.5 63.9579 17.3173 63.9579 18.2596Z" fill="#F6F5F3"/>
<path d="M71.3526 19.1827L69.8281 18.6923L79.603 7.09615H85.5516L70.8145 23.5385H65.8225V1.32692H71.3526V19.1827ZM74.7604 15.4904L78.8856 12.5769L86 23.5385H79.6926L74.7604 15.4904Z" fill="#F6F5F3"/>
</svg>
